Patient4_TMGait_0pt2_03_right_14_EMG.mot
version=1
nRows=30
nColumns=33
inDegrees=no
endheader
time	1LAddLong	2LGlutMax	3LGlutMed	4LIliopsoas	5LSemiMemb	6LBicFemLong	7LRecFem	8LVastMed	9LVastLat	10LGasMed	11LTibAnt	12lTibPost	13LPeroneusLong	14LSol	15LExtDigLong	16LFlexDigLong	17RAddLong	18RGlutMax	19RGlutMed	20RIliopsoas	21RSemiMemb	22RBicFemLong	23RRecFem	24RVastMed	25RVastLat	26RGasMed	27RTibAnt	28RTibPost	29RPeroneusLong	30RSol	31RExtDigLong	32RFlexDigLong
30.727	0.007477	0.053711	0.010223	0.00351	-0.007477	-0.008392	-0.033112	0.003815	0.031738	-0.053864	0.012512	-0.001831	0.010529	-0.14572	-0.015259	-0.005035	0.014648	-0.83557	0.049896	0.022278	0.14679	-0.19104	0.006866	-0.42694	0.011444	-0.007477	0.013123	0.006866	0.25574	0.027313	0.002289	-0.000153
30.728	0.011597	0.060577	0.01297	0.007477	0.031738	0.005188	-0.036163	0.003052	0.035248	-0.058594	0.014801	-0.001526	-0.003662	-0.43701	-0.007629	0.016937	-0.01709	-0.98038	-0.23712	0.04303	-0.037079	-0.058289	0.039825	-0.34927	0.025635	-0.008392	0.032654	-0.004425	-0.053406	0.029755	-0.001221	-0.00061
30.729	0.00824	0.050049	0.023041	0.027008	0.039673	-0.003204	-0.018463	-0.006866	0.032654	0.009308	0.009003	-0.006104	-0.033417	-0.34866	0.004425	0.03418	-0.067902	-1.0597	-0.39078	0.073395	-0.11871	0.0177	0.091095	-0.17425	0.042877	-0.002594	-0.033569	-0.009918	-0.93781	-0.039673	-0.005341	-0.006866
30.73	0.014648	0.073395	0.041809	0.010529	-0.016174	-0.00061	-0.02121	-0.003357	0.037994	0.048065	0.016327	-0.011749	-0.055237	-0.074005	0.01709	0.02533	-0.078125	-1.0727	-0.30243	0.029297	-0.03479	-0.038757	0.1474	0.009766	0.005951	-0.003052	-0.031586	-0.007477	-0.72144	-0.049896	-0.001678	-0.013733
30.731	0.019531	0.069427	0.070801	0.018311	-0.044403	0.002899	-0.021667	-0.001984	0.038452	0.057983	0.009308	-0.002747	-0.019684	0.30518	0.014648	-0.25192	-0.037994	-1.041	-0.36087	-0.066681	0.019531	-0.13046	0.14282	0.039063	0.006104	-0.004425	0.00824	-0.007782	0.44647	-0.000305	-0.002136	-0.008698
30.732	0.007935	0.069885	0.054016	0.007782	0.007019	0.00885	-0.039215	-0.005798	0.041046	0.1358	0.004272	-0.001678	-0.092163	0.29602	0.005951	-0.071259	0.001373	-0.92361	0.17502	-0.13275	0.005951	-0.1709	0.080872	0.011749	0.02182	-0.001678	0.004883	-0.009613	0.34821	-0.051117	-0.003357	-0.014343
30.733	0.008087	0.09491	0.012817	-0.00061	0.037689	0.034485	-0.049744	0.000763	0.0354	0.098572	-0.007477	-0.00351	-0.1712	0.26154	0.00824	-0.26459	-0.036011	-0.87891	0.007629	-0.14954	-0.103	-0.10315	-0.021973	0.20294	0.1239	-0.005341	0.023499	-0.008087	0.37231	-0.036011	-0.00351	-0.008392
30.734	0.004272	0.072021	-0.00473	-0.006866	0.023956	0.037537	-0.053253	0.003204	0.025482	-0.022888	0.045471	-0.008545	-0.21988	0.26794	-0.025787	-0.18539	-0.015869	-0.90179	-0.32913	-0.09964	-0.15808	-0.051575	0.037384	0.2385	0.14328	0.001678	0.093536	-0.008698	0.16937	0.009918	-0.003815	-0.001831
30.735	0.001984	0.047302	0.012512	-0.003662	-0.003052	0.013733	-0.041809	0.005035	0.031738	-0.18463	-0.009766	-0.00351	-0.1471	0.23377	-0.052338	0.5368	0.03891	-0.9729	-0.28976	0.066681	-0.27084	-0.077057	0.078125	0.050201	0.085907	-0.001831	0.060883	-0.005493	0.073242	-0.078888	-0.002441	-0.014648
30.736	-0.008545	0.067902	0.024567	0.00946	0.003204	-0.012512	-0.030823	0.001526	0.033264	-0.1384	0.041962	0.005646	0.06897	0.47287	-0.052643	0.14618	0.05188	-0.96237	-0.30914	0.17197	-0.38711	-0.076599	0.10513	-0.060272	0.056152	-0.00061	0.05188	-0.007782	-0.07843	-0.042572	0.008392	-0.011444
30.737	-0.003815	0.048828	0.01236	0.012512	0.028992	0.02533	-0.038147	0.002441	0.028229	-0.18768	0.018463	0.010071	0.022278	0.33402	0.005646	0.64636	0.05127	-0.93674	-0.23392	0.22354	-0.40817	-0.09491	0.11841	-0.067902	0.031586	0.001526	0.07309	-0.007019	-0.16571	0.033417	-0.005188	-0.012512
30.738	0.001984	0.035858	0.036011	0.017395	0.018921	0.039368	-0.006256	0.004578	0.030975	-0.077515	-0.031281	0.12772	-0.042877	0.16678	0.016327	0.35461	0.02655	-0.8757	0.21729	0.12528	-0.30899	-0.026855	0.080872	0.016937	0.02243	0.000153	0.080872	-0.012665	0.067444	0.022736	-0.005951	-0.0177
30.739	-0.012817	0.029449	0.063019	0.019836	0.005188	0.063171	-0.019073	0.005341	0.031891	0.22034	-0.001984	-0.13458	-0.036621	0.090027	0.040131	-0.24414	-0.00824	-0.84	0.27496	-0.005951	0.045471	0.087891	0.11322	0.070801	0.01236	0.006714	0.0914	-0.005646	-0.16678	-0.027466	-0.002136	-0.011597
30.74	0.001831	0.04303	0.057831	0.027161	-0.002441	0.032806	-0.021057	-0.002289	0.0354	0.17487	-0.014954	0.04303	-0.040894	-0.045471	0.053558	-0.23895	-0.010529	-0.80566	0.045624	-0.055389	0.067749	0.12573	0.12955	0.020599	-0.010986	0.001831	0.073395	-0.005493	-0.49805	-0.10452	-0.006714	-0.006409
30.741	0.003662	0.05661	0.053253	0.025635	-0.034332	-0.005493	-0.041046	0	0.031433	-0.038452	-0.006256	0.017853	-0.14816	0.75378	0.03006	-0.19852	-0.011902	-0.75775	-0.20996	-0.037842	0.060577	0.067444	0.093384	0.090637	0.002899	0.001831	0.068359	-0.006866	-0.02121	-0.11841	-0.004425	-0.010986
30.742	0.014038	0.053558	0.059814	0.009308	0.020752	-0.086365	-0.014191	0.001678	0.032806	-0.082855	-0.004425	-0.37933	0.032043	0.24948	-0.004272	-0.14618	-0.00473	-0.61737	-0.15305	-0.010223	0.054321	-0.040436	0.10819	0.089874	0.045471	-0.015717	0.12985	0.005798	0.35355	-0.015259	-0.00061	-0.012817
30.743	0.011597	0.075684	0.06012	-0.002747	0.073395	-0.13138	-0.019073	0.003967	0.038452	-0.040741	-0.006256	-0.13458	0.24323	-0.97275	-0.050354	-0.031281	0.016174	-0.57144	0.11734	0.037079	-0.028381	0.072937	0.093079	0.11612	0.079956	-0.007782	0.020752	-0.007172	0.25971	0.13275	-0.002899	-0.010223
30.744	0.012665	0.083771	0.086365	0.001221	0.05722	-0.056458	-0.022736	0.003204	0.030518	-0.036774	0.000458	0.026398	0.2626	-1.0046	-0.054016	0.081482	0.078888	-0.55664	0.03006	0.069885	-0.23605	0.082245	0.18829	0.029755	0.014648	0.007477	-0.18692	-0.004578	1.4265	0.10101	-0.001068	-0.007172
30.745	0.003662	0.060883	0.087738	-0.001373	0.032501	0.024414	-0.037231	0.002441	0.04303	-0.078125	0.000916	0.26428	0.24872	0.023804	0.005341	-0.062714	0.055237	-0.52567	-0.060577	-0.053558	-0.2153	0.10483	0.16571	0.036163	-0.016327	0.015411	-0.21484	0.001068	1.4963	-0.02655	-0.003204	-0.000916
30.746	0.010071	0.036011	0.066376	0.002441	0.015259	0.049896	-0.055389	0.005951	0.039215	-0.11139	0.003815	0.099945	0.18936	0.14969	0.013428	0.29877	0.064545	-0.52933	-0.30014	-0.12558	0.091095	0.000305	0.18539	-0.008545	0.009918	0.010071	-0.003357	0.002594	0.074158	-0.10346	-0.002136	-0.007935
30.747	0.006561	0.003967	0.076904	-0.003204	0.00946	0.054169	-0.045929	0.002289	0.035706	-0.16037	0.00824	-0.36865	-0.044098	-0.51666	0.004578	0.17899	0.056763	-0.47913	-0.19531	-0.078735	0.27451	-0.14984	0.16815	-0.18082	-0.003204	-0.009766	0.11612	-0.002441	0.011292	-0.085754	-0.003204	-0.000458
30.748	0.010681	0.014496	0.05249	0.010986	0.014801	0.041809	-0.034943	0.003662	0.052185	-0.25391	0.007477	0.35309	-0.12405	-0.65399	0.00351	-0.11353	0.036926	-0.383	0.20096	-0.038605	0.16785	-0.12482	0.13931	-0.16647	-0.003967	-0.009155	0.10376	-0.041351	-0.59296	-0.16205	0.00061	-0.00824
30.749	0.003357	0.022278	0.069427	-0.006104	0.022888	0.006866	-0.059204	0.002441	0.040283	-0.22614	-0.001984	0.27252	-0.11231	0.38025	-0.041656	0.098724	0.059509	-0.47195	0.015717	0.071869	0.043488	0.053406	0.10101	-0.11871	0.026245	-0.001984	-0.08667	-0.026093	-1.7424	-0.003357	0.007019	-0.009918
30.75	0.005188	0.024567	0.040741	0.008087	0.010376	-0.052185	-0.047913	0.001984	0.041199	-0.14832	-0.001678	0.021057	-0.027771	1.1397	-0.041656	0.075226	0.056	-0.45181	0.215	0.14191	0.050507	0.15182	0.11658	-0.060425	0.032043	0.000458	-0.069427	0.015564	-0.74204	0.18097	-0.001984	-0.012665
30.751	-0.000763	0.042877	0.044861	0.012512	0.011444	-0.059662	-0.037384	0.002289	0.040436	0.089722	0.006256	0.066528	-0.12146	1.5193	-0.010834	-0.14008	0.02655	-0.41519	0.11673	0.093079	-0.001984	0.17792	0.13794	0.030212	0.018005	-0.004578	-0.036926	0.019684	-0.33203	0.096588	-0.001221	-0.010681
30.752	0.001221	0.039063	0.036316	0.00946	0.006409	-0.001221	-0.02182	0	0.034637	0.29907	0.007324	-0.18402	-0.19211	0.63568	0.002899	-0.13306	0.018158	-0.33234	-0.12802	-0.018768	0.063019	0.16617	0.074005	0.23422	0.014038	-0.007324	-0.028839	0.012512	-0.53741	0.02594	-0.002441	-0.010376
30.753	0.006409	0.022736	0.06134	0.007324	0.002136	-0.022278	-0.041199	-0.008392	0.035553	0.37476	0.003815	-0.14328	-0.18127	-0.6424	-0.00824	0.18601	-0.022583	-0.24292	0.13153	-0.093079	0.021667	0.19775	-0.052643	0.36865	0.043945	-0.009003	0.024872	0.011902	-0.55115	-0.013428	-0.003357	-0.004578
30.754	0.003204	0.009003	0.059204	0.012665	-0.004883	-0.051575	-0.023804	-0.005493	0.037384	0.31647	-0.003052	0.53741	0.074615	-1.0863	-0.012054	0.22919	-0.068359	-0.17273	0.38666	-0.010071	-0.30655	0.16953	-0.13031	0.4274	0.052795	0.003204	-0.025024	0.002441	-0.16983	-0.032349	-0.003052	-0.004272
30.755	0.017548	0.012817	0.063477	0.010529	-0.012207	-0.049591	-0.011292	0.001373	0.040131	0.27969	-0.010529	0.095673	0.19653	-1.8587	-0.024109	-0.18997	-0.017548	-0.19241	0.29236	-0.004425	-0.28412	0.085602	-0.043182	0.15793	0.31967	0.010529	-0.15793	0.006866	0.2742	-0.1091	-0.004883	-0.000916
30.756	0.011749	-0.016632	0.05249	-0.009155	-0.009766	-0.062866	-0.007782	-0.007019	0.040588	0.12497	0.000763	0.022736	0.16312	-1.517	0.007019	0.14374	0.023346	-0.21332	0.25635	-0.004883	-0.050049	-0.066833	-0.023804	-0.089874	0.55313	0.001373	-0.19638	0.000916	0.29663	-0.048065	-0.005341	-0.00473
